<svg width="186" height="39" viewBox="0 0 186 39" fill="none" xmlns="http://www.w3.org/2000/svg">
<path d="M30.388 6.468C30.66 6.92133 30.66 7.37467 30.388 7.828C30.116 8.236 29.7307 8.41733 29.232 8.372C28.7787 8.28133 28.3027 8.14533 27.804 7.964C27.3507 7.73733 26.92 7.57867 26.512 7.488C25.8773 7.352 25.152 7.284 24.336 7.284C23.52 7.23867 22.7947 7.26133 22.16 7.352C21.6613 7.39733 21.14 7.60133 20.596 7.964C20.0973 8.28133 19.576 8.55333 19.032 8.78C18.896 8.82533 18.7373 8.82533 18.556 8.78C18.42 8.73467 18.284 8.73467 18.148 8.78C17.9667 8.916 17.808 9.09733 17.672 9.324C17.5813 9.50533 17.4453 9.64133 17.264 9.732C16.992 9.82267 16.6973 9.89067 16.38 9.936C16.108 9.98133 15.8587 10.072 15.632 10.208C15.3147 10.3893 15.02 10.6613 14.748 11.024C14.476 11.3867 14.0907 11.6813 13.592 11.908C13.184 12.18 12.8213 12.4747 12.504 12.792C11.0533 14.424 9.82933 16.2147 8.832 18.164C7.88 20.1133 7.17733 22.244 6.724 24.556C6.588 25.0093 6.588 25.508 6.724 26.052C6.81467 26.3693 6.81467 26.7093 6.724 27.072C6.67867 27.3893 6.67867 27.7293 6.724 28.092C6.90533 29.0893 7.44933 29.996 8.356 30.812C9.308 31.5827 10.1467 32.0813 10.872 32.308C12.0053 32.716 13.1613 32.8293 14.34 32.648C15.5187 32.4213 16.6747 32.1267 17.808 31.764C18.9413 31.356 20.0067 31.1067 21.004 31.016C21.412 30.9707 21.7973 31.1067 22.16 31.424C22.568 31.696 22.7947 32.0587 22.84 32.512C22.84 32.6027 22.8627 32.6707 22.908 32.716C23.18 33.6227 23.044 34.416 22.5 35.096C22.3187 35.368 22.0693 35.5947 21.752 35.776C21.48 35.9573 21.1853 36.116 20.868 36.252C17.6493 37.612 14.3173 37.9747 10.872 37.34C9.01333 36.9773 7.44933 36.388 6.18 35.572C4.91067 34.7107 3.868 33.464 3.052 31.832C2.916 31.56 2.78 31.288 2.644 31.016C2.508 30.6987 2.39467 30.404 2.304 30.132C2.168 29.8147 2.00933 29.384 1.828 28.84C1.692 28.296 1.57867 27.8653 1.488 27.548C0.989333 25.508 0.898667 23.468 1.216 21.428C1.53333 19.388 2.00933 17.484 2.644 15.716C3.23333 14.084 4.004 12.4973 4.956 10.956C5.908 9.36933 7.01867 7.98667 8.288 6.808C8.424 6.672 8.56 6.55866 8.696 6.468C8.87733 6.332 9.05867 6.21867 9.24 6.128C10.6453 5.448 12.096 4.58667 13.592 3.544C15.088 2.456 16.6747 1.79866 18.352 1.572C20.6187 1.25467 22.5907 1.45867 24.268 2.184C25.9907 2.90933 27.5773 3.79333 29.028 4.836C29.572 5.15333 30.0027 5.652 30.32 6.332C30.3653 6.37733 30.388 6.42267 30.388 6.468ZM75.0082 9.936C74.1922 12.4747 73.4669 14.9907 72.8322 17.484C72.2429 19.9773 71.5402 22.4253 70.7242 24.828C70.6789 25.0093 70.6336 25.1907 70.5882 25.372C70.5882 25.508 70.5882 25.6893 70.5882 25.916C70.5429 27.0947 70.3616 28.228 70.0442 29.316C69.7722 30.404 69.5456 31.6053 69.3642 32.92C69.3642 33.1013 69.2736 33.192 69.0922 33.192C68.9562 33.192 68.9109 33.26 68.9562 33.396C69.0469 34.348 69.0016 35.232 68.8202 36.048C68.6389 36.8187 68.5029 37.2493 68.4122 37.34C68.3216 37.34 68.2762 37.408 68.2762 37.544C67.9589 37.9067 67.5736 38.0653 67.1202 38.02C66.7122 38.02 66.2816 37.9293 65.8282 37.748C64.8762 37.4307 64.2189 36.8187 63.8562 35.912C63.7202 35.5947 63.5842 35.3 63.4482 35.028C63.3122 34.756 63.1989 34.5293 63.1082 34.348C62.5642 33.532 62.4056 32.6253 62.6322 31.628C63.7656 26.9133 64.9896 21.9947 66.3042 16.872C67.6642 11.704 69.2509 6.78533 71.0642 2.116C71.1549 1.844 71.3362 1.66266 71.6082 1.572C71.9256 1.436 72.2202 1.436 72.4922 1.572C72.8549 1.79866 73.1722 2.07067 73.4442 2.388C73.8522 2.97733 74.2829 3.612 74.7362 4.292C75.2349 4.972 75.5522 5.67467 75.6882 6.4C75.8242 7.08 75.5976 7.80533 75.0082 8.576C74.7816 8.89333 74.7816 9.12 75.0082 9.256C75.0989 9.48266 75.0989 9.70933 75.0082 9.936ZM51.0042 6.672C50.9589 6.85333 50.9362 7.03466 50.9362 7.216C50.9362 7.352 50.9362 7.51066 50.9362 7.692V7.828C49.9389 10.8653 49.0096 13.9707 48.1482 17.144C47.2869 20.272 46.3802 23.3093 45.4282 26.256C45.2922 26.528 45.2242 26.8 45.2242 27.072C45.0429 28.4773 44.7709 30.0867 44.4082 31.9C44.0909 33.668 43.6829 35.2547 43.1842 36.66C43.0029 37.1133 42.7082 37.4533 42.3002 37.68C41.8922 37.9067 41.4616 37.9973 41.0082 37.952C40.4189 37.816 39.9202 37.5893 39.5122 37.272C39.1496 36.9547 38.7869 36.6147 38.4242 36.252C37.7442 35.436 37.4042 34.5293 37.4042 33.532C37.4496 32.8973 37.5629 32.24 37.7442 31.56C37.9256 30.8347 38.0616 30.0413 38.1522 29.18C38.4696 27.3667 38.8776 25.3947 39.3762 23.264C39.9202 21.088 40.4869 18.9347 41.0762 16.804C41.6656 14.628 42.2549 12.6333 42.8442 10.82C43.2976 9.36933 43.7509 8.00933 44.2042 6.74C44.7029 5.47067 45.1562 4.224 45.5642 3C45.7002 2.63733 45.9722 2.36533 46.3802 2.184C46.7882 1.95733 47.1736 1.93467 47.5362 2.116C48.2162 2.43333 48.8056 2.81866 49.3042 3.272C49.8029 3.72533 50.2562 4.24666 50.6642 4.836C51.0722 5.38 51.1856 5.992 51.0042 6.672ZM63.5162 18.028C63.7429 18.3907 63.7882 18.776 63.6522 19.184C63.5162 19.592 63.2669 19.8867 62.9042 20.068C60.2296 21.292 57.5322 21.7 54.8122 21.292C53.9509 21.0653 53.2256 20.6573 52.6362 20.068C52.3189 19.7507 51.9789 19.5013 51.6162 19.32C51.2536 19.0933 50.9136 18.844 50.5962 18.572C50.2336 18.2093 50.0976 17.8013 50.1882 17.348C50.3242 16.8947 50.6189 16.6227 51.0722 16.532C52.5682 16.124 54.1549 15.852 55.8322 15.716C57.5549 15.5347 59.0962 15.58 60.4562 15.852C61.1816 15.9427 61.7709 16.2147 62.2242 16.668C62.7229 17.076 63.1536 17.5293 63.5162 18.028ZM97.3542 6.672C97.3542 7.03467 97.2862 7.42 97.1502 7.828C97.0142 8.19066 96.9009 8.59866 96.8102 9.052C96.7649 9.50533 96.6969 9.95866 96.6062 10.412C96.5155 10.8653 96.4249 11.2733 96.3342 11.636C96.2435 12.2253 96.1529 12.7693 96.0622 13.268C95.9715 13.7213 95.8809 14.2427 95.7902 14.832C95.7902 15.0133 95.7449 15.172 95.6542 15.308C95.6089 15.3987 95.5409 15.5347 95.4502 15.716C95.4502 15.8973 95.4502 16.0787 95.4502 16.26C95.4502 16.396 95.4275 16.532 95.3822 16.668C95.3369 16.8493 95.2689 17.1213 95.1782 17.484C95.1329 17.8467 95.0875 18.096 95.0422 18.232C94.5435 20.3173 94.1129 22.244 93.7502 24.012C93.4329 25.78 92.9795 27.412 92.3902 28.908C92.2542 29.2253 92.1862 29.588 92.1862 29.996C92.0955 30.7213 91.9369 31.56 91.7102 32.512C91.5289 33.464 91.3022 34.3707 91.0302 35.232C90.9395 35.64 90.8489 36.048 90.7582 36.456C90.7129 36.864 90.5089 37.1813 90.1462 37.408C89.3302 37.952 88.4915 37.9973 87.6302 37.544C87.5849 37.4533 87.5169 37.3853 87.4262 37.34C87.3355 37.2947 87.2449 37.2493 87.1542 37.204C86.6102 36.796 86.2475 36.2973 86.0662 35.708C85.9302 35.3453 85.7942 35.0507 85.6582 34.824C85.5222 34.5973 85.3635 34.3253 85.1822 34.008C85.0462 33.6 85.0235 33.1013 85.1142 32.512C85.2502 31.9227 85.3862 31.4013 85.5222 30.948C86.1569 28.772 86.7915 26.4147 87.4262 23.876C88.1062 21.292 88.7409 18.7533 89.3302 16.26C89.6475 15.2173 89.8515 14.1747 89.9422 13.132C90.0782 12.044 90.2822 10.9333 90.5542 9.8C90.6902 9.30133 90.7809 8.80267 90.8262 8.304C90.9169 7.76 90.9849 7.216 91.0302 6.672C91.1209 6.35467 91.1889 5.992 91.2342 5.584C91.2795 5.13066 91.3022 4.74533 91.3022 4.428C91.3475 3.612 91.5515 3.068 91.9142 2.796C92.2769 2.524 92.6395 2.36533 93.0022 2.32C93.6822 2.184 94.2035 2.20667 94.5662 2.388C94.9742 2.524 95.4275 2.77333 95.9262 3.136C96.8782 3.816 97.3315 4.38267 97.2862 4.836C97.2862 5.28933 97.3089 5.90133 97.3542 6.672ZM130.49 36.32C130.49 36.728 130.354 37.068 130.082 37.34C129.765 37.5213 129.425 37.612 129.062 37.612C126.795 37.5213 124.574 37.544 122.398 37.68C120.267 37.8613 118.114 37.9747 115.938 38.02C113.762 38.1107 111.473 37.9747 109.07 37.612C108.209 37.3853 107.551 36.932 107.098 36.252C106.917 35.98 106.735 35.7307 106.554 35.504C106.418 35.2773 106.305 35.028 106.214 34.756C106.169 34.6653 106.169 34.5067 106.214 34.28C106.259 34.008 106.259 33.804 106.214 33.668C106.123 33.3053 106.01 33.124 105.874 33.124C105.738 33.0787 105.67 32.9427 105.67 32.716C105.67 32.308 105.761 31.7413 105.942 31.016C106.123 30.2453 106.327 29.4747 106.554 28.704C106.826 27.9333 107.007 27.344 107.098 26.936C107.551 25.576 107.914 24.1707 108.186 22.72C108.458 21.224 108.775 19.6827 109.138 18.096C109.773 15.4667 110.475 12.9507 111.246 10.548C112.017 8.14533 112.969 5.76533 114.102 3.408C114.329 3.04533 114.442 2.592 114.442 2.048C114.487 1.95733 114.533 1.86667 114.578 1.776C114.623 1.68533 114.669 1.61733 114.714 1.572C114.941 1.028 115.349 0.755996 115.938 0.755996C116.709 0.891997 117.253 1.164 117.57 1.572C117.706 1.66266 117.842 1.75333 117.978 1.844C118.114 1.93466 118.227 2.02533 118.318 2.116C118.635 2.34267 118.907 2.592 119.134 2.864C119.406 3.09067 119.633 3.38533 119.814 3.748C119.905 4.06533 120.063 4.38267 120.29 4.7C120.517 5.01733 120.653 5.35733 120.698 5.72C120.789 6.21867 120.653 6.71733 120.29 7.216C119.927 7.71467 119.678 8.21333 119.542 8.712C119.089 9.98133 118.703 11.4547 118.386 13.132C118.069 14.8093 117.57 16.2373 116.89 17.416C116.709 17.688 116.573 17.96 116.482 18.232C116.437 18.4587 116.369 18.7307 116.278 19.048C116.278 19.5013 116.187 19.9547 116.006 20.408C115.87 20.8613 115.802 21.4053 115.802 22.04C115.802 22.2213 115.711 22.312 115.53 22.312C115.394 22.312 115.281 22.4253 115.19 22.652C115.054 23.876 114.85 25.1453 114.578 26.46C114.351 27.7747 114.057 28.9987 113.694 30.132C113.513 30.4947 113.513 30.8347 113.694 31.152C113.921 31.4693 114.215 31.6507 114.578 31.696C116.21 31.8773 117.91 31.9227 119.678 31.832C121.446 31.696 123.123 31.696 124.71 31.832C126.297 31.9227 127.634 32.444 128.722 33.396C129.085 33.7133 129.289 33.9853 129.334 34.212C129.425 34.3933 129.561 34.552 129.742 34.688C130.15 35.096 130.399 35.64 130.49 36.32ZM163.494 36.32C163.494 36.728 163.358 37.068 163.086 37.34C162.768 37.5213 162.428 37.612 162.066 37.612C159.799 37.5213 157.578 37.544 155.402 37.68C153.271 37.8613 151.118 37.9747 148.942 38.02C146.766 38.1107 144.476 37.9747 142.074 37.612C141.212 37.3853 140.555 36.932 140.102 36.252C139.92 35.98 139.739 35.7307 139.558 35.504C139.422 35.2773 139.308 35.028 139.218 34.756C139.172 34.6653 139.172 34.5067 139.218 34.28C139.263 34.008 139.263 33.804 139.218 33.668C139.127 33.3053 139.014 33.124 138.878 33.124C138.742 33.0787 138.674 32.9427 138.674 32.716C138.674 32.308 138.764 31.7413 138.946 31.016C139.127 30.2453 139.331 29.4747 139.558 28.704C139.83 27.9333 140.011 27.344 140.102 26.936C140.555 25.576 140.918 24.1707 141.19 22.72C141.462 21.224 141.779 19.6827 142.142 18.096C142.776 15.4667 143.479 12.9507 144.25 10.548C145.02 8.14533 145.972 5.76533 147.106 3.408C147.332 3.04533 147.446 2.592 147.446 2.048C147.491 1.95733 147.536 1.86667 147.582 1.776C147.627 1.68533 147.672 1.61733 147.718 1.572C147.944 1.028 148.352 0.755996 148.942 0.755996C149.712 0.891997 150.256 1.164 150.574 1.572C150.71 1.66266 150.846 1.75333 150.982 1.844C151.118 1.93466 151.231 2.02533 151.322 2.116C151.639 2.34267 151.911 2.592 152.138 2.864C152.41 3.09067 152.636 3.38533 152.818 3.748C152.908 4.06533 153.067 4.38267 153.294 4.7C153.52 5.01733 153.656 5.35733 153.702 5.72C153.792 6.21867 153.656 6.71733 153.294 7.216C152.931 7.71467 152.682 8.21333 152.546 8.712C152.092 9.98133 151.707 11.4547 151.39 13.132C151.072 14.8093 150.574 16.2373 149.894 17.416C149.712 17.688 149.576 17.96 149.486 18.232C149.44 18.4587 149.372 18.7307 149.282 19.048C149.282 19.5013 149.191 19.9547 149.01 20.408C148.874 20.8613 148.806 21.4053 148.806 22.04C148.806 22.2213 148.715 22.312 148.534 22.312C148.398 22.312 148.284 22.4253 148.194 22.652C148.058 23.876 147.854 25.1453 147.582 26.46C147.355 27.7747 147.06 28.9987 146.698 30.132C146.516 30.4947 146.516 30.8347 146.698 31.152C146.924 31.4693 147.219 31.6507 147.582 31.696C149.214 31.8773 150.914 31.9227 152.682 31.832C154.45 31.696 156.127 31.696 157.714 31.832C159.3 31.9227 160.638 32.444 161.726 33.396C162.088 33.7133 162.292 33.9853 162.338 34.212C162.428 34.3933 162.564 34.552 162.746 34.688C163.154 35.096 163.403 35.64 163.494 36.32ZM185.21 6.672C185.21 7.03467 185.142 7.42 185.006 7.828C184.87 8.19066 184.756 8.59866 184.666 9.052C184.62 9.50533 184.552 9.95866 184.462 10.412C184.371 10.8653 184.28 11.2733 184.19 11.636C184.099 12.2253 184.008 12.7693 183.918 13.268C183.827 13.7213 183.736 14.2427 183.646 14.832C183.646 15.0133 183.6 15.172 183.51 15.308C183.464 15.3987 183.396 15.5347 183.306 15.716C183.306 15.8973 183.306 16.0787 183.306 16.26C183.306 16.396 183.283 16.532 183.238 16.668C183.192 16.8493 183.124 17.1213 183.034 17.484C182.988 17.8467 182.943 18.096 182.898 18.232C182.399 20.3173 181.968 22.244 181.606 24.012C181.288 25.78 180.835 27.412 180.246 28.908C180.11 29.2253 180.042 29.588 180.042 29.996C179.951 30.7213 179.792 31.56 179.566 32.512C179.384 33.464 179.158 34.3707 178.886 35.232C178.795 35.64 178.704 36.048 178.614 36.456C178.568 36.864 178.364 37.1813 178.002 37.408C177.186 37.952 176.347 37.9973 175.486 37.544C175.44 37.4533 175.372 37.3853 175.282 37.34C175.191 37.2947 175.1 37.2493 175.01 37.204C174.466 36.796 174.103 36.2973 173.922 35.708C173.786 35.3453 173.65 35.0507 173.514 34.824C173.378 34.5973 173.219 34.3253 173.038 34.008C172.902 33.6 172.879 33.1013 172.97 32.512C173.106 31.9227 173.242 31.4013 173.378 30.948C174.012 28.772 174.647 26.4147 175.282 23.876C175.962 21.292 176.596 18.7533 177.186 16.26C177.503 15.2173 177.707 14.1747 177.798 13.132C177.934 12.044 178.138 10.9333 178.41 9.8C178.546 9.30133 178.636 8.80267 178.682 8.304C178.772 7.76 178.84 7.216 178.886 6.672C178.976 6.35467 179.044 5.992 179.09 5.584C179.135 5.13066 179.158 4.74533 179.158 4.428C179.203 3.612 179.407 3.068 179.77 2.796C180.132 2.524 180.495 2.36533 180.858 2.32C181.538 2.184 182.059 2.20667 182.422 2.388C182.83 2.524 183.283 2.77333 183.782 3.136C184.734 3.816 185.187 4.38267 185.142 4.836C185.142 5.28933 185.164 5.90133 185.21 6.672Z" fill="#2A6081"/>
</svg>
